HIERARCHY
ROOT ui
{
	 OFFSET 0 0 0
	 CHANNELS 3 XPosition YPosition Z Position
	 EndSite
	 {
	 OFFSET 0 -1 0
	 }
}
ROOT li
{
	 OFFSET 0 0 0
	 CHANNELS 3 XPosition YPosition Z Position
	 EndSite
	 {
	 OFFSET 0 -1 0
	 }
}
ROOT ul
{
	 OFFSET 0 0 0
	 CHANNELS 3 XPosition YPosition Z Position
	 EndSite
	 {
	 OFFSET 0 -1 0
	 }
}
ROOT ll
{
	 OFFSET 0 0 0
	 CHANNELS 3 XPosition YPosition Z Position
	 EndSite
	 {
	 OFFSET 0 -1 0
	 }
}
ROOT tt
{
	 OFFSET 0 0 0
	 CHANNELS 3 XPosition YPosition Z Position
	 EndSite
	 {
	 OFFSET 0 -1 0
	 }
}
ROOT tb
{
	 OFFSET 0 0 0
	 CHANNELS 3 XPosition YPosition Z Position
	 EndSite
	 {
	 OFFSET 0 -1 0
	 }
}
ROOT td
{
	 OFFSET 0 0 0
	 CHANNELS 3 XPosition YPosition Z Position
	 EndSite
	 {
	 OFFSET 0 -1 0
	 }
}
ROOT v
{
	 OFFSET 0 0 0
	 CHANNELS 3 XPosition YPosition Z Position
	 EndSite
	 {
	 OFFSET 0 -1 0
	 }
}
ROOT bn
{
	 OFFSET 0 0 0
	 CHANNELS 3 XPosition YPosition Z Position
	 EndSite
	 {
	 OFFSET 0 -1 0
	 }
}
MOTION
Frames: 33
Frame Time: 0.002
-0.03000421142578125	0.003560403108596802	0		0.48508367919921874	-2.37075341796875	0		-1.11908349609375	0.19955067443847657	0		-0.5100821228027344	-2.67973583984375	0		2.298969970703125	-0.10992652893066407	0		3.844617431640625	-0.053507179260253904	0		5.04184716796875	0.062428012847900394	0		6.03575927734375	0.5191746826171875	0		-0.32403567504882813	5.853822265625	0		
0.0440611457824707	-0.0012034529447555542	0		0.5361094970703125	-2.379285400390625	0		-1.11897412109375	0.19953288269042968	0		-0.5608898315429688	-2.67123974609375	0		2.307179931640625	-0.10002603149414062	0		3.83077783203125	-0.04838486099243164	0		5.03703759765625	0.0704592514038086	0		6.02215673828125	0.48833489990234374	0		-0.3589638671875	5.8501572265625	0		
-0.03386587905883789	5.649330019950867E-4	0		0.5102004699707031	-2.376041259765625	0		-1.1339447021484375	0.1966660614013672	0		-0.53780126953125	-2.668489990234375	0		2.314339111328125	-0.0901146240234375	0		3.82408935546875	-0.023332754135131837	0		5.026248046875	0.08555243682861328	0		6.0258291015625	0.5037879333496094	0		-0.3589061279296875	5.85013916015625	0		
0.0400977668762207	-0.005199727058410645	0		0.5102186889648438	-2.37606005859375	0		-1.1248568115234374	0.20355593872070313	0		-0.5628321533203124	-2.673256591796875	0		2.269510498046875	-0.07468015289306641	0		3.841166748046875	-0.017522655487060546	0		5.01149853515625	0.10868449401855469	0		6.02584228515625	0.5037571105957032	0		-0.3939379272460938	5.8454736328125	0		
-0.033863044738769534	5.258150100708008E-4	0		0.4872753601074219	-2.3688486328125	0		-1.1248717041015626	0.20353570556640624	0		-0.55880712890625	-2.6693173828125	0		2.270626708984375	-0.06171126937866211	0		3.810566650390625	0.02376736259460449	0		5.00469580078125	0.12973350524902344	0		6.02946240234375	0.5192035522460937	0		-0.35890402221679685	5.85010009765625	0		
0.04711259078979492	0.0016872060298919677	0		0.5093443603515625	-2.358093017578125	0		-1.1198720703125	0.20746340942382813	0		-0.565716552734375	-2.656269287109375	0		2.296655517578125	-0.05499596786499023	0		3.8284951171875	0.020563592910766603	0		5.00785693359375	0.14967962646484376	0		6.02943359375	0.5191641235351563	0		-0.324884765625	5.8557353515625	0		
-0.029933177947998046	0.003439996004104614	0		0.49531549072265624	-2.3549755859375	0		-1.130921142578125	0.20855079650878905	0		-0.5338485717773438	-2.663614990234375	0		2.27656640625	-0.05781770706176758	0		3.820778564453125	0.05461895370483399	0		4.99202978515625	0.17281617736816407	0		6.02939111328125	0.519123291015625	0		-0.3410444030761719	5.84587353515625	0		
0.04394794845581055	-0.001331341028213501	0		0.49727166748046875	-2.352021240234375	0		-1.1309959716796876	0.20852494812011718	0		-0.569890380859375	-2.66027783203125	0		2.266451904296875	-0.06174138641357422	0		3.797775390625	0.0618263053894043	0		4.99516650390625	0.19376107788085936	0		6.02933740234375	0.519082763671875	0		-0.36105966186523436	5.85204931640625	0		
-0.03412530517578125	4.2679500579833983E-4	0		0.47120794677734373	-2.349786865234375	0		-1.1200941162109375	0.2073849334716797	0		-0.5340073852539062	-2.663669189453125	0		2.264294189453125	-0.06874701690673828	0		3.77289111328125	0.08205252838134766	0		4.97929150390625	0.2148975830078125	0		6.0334755859375	0.49990975952148436	0		-0.32610354614257814	5.85666796875	0		
0.04376180648803711	-0.0013910969495773316	0		0.48407186889648435	-2.35394873046875	0		-1.120193359375	0.2073514404296875	0		-0.5551210327148437	-2.665489990234375	0		2.302123046875	-0.07615774536132812	0		3.80475	0.07770453643798828	0		4.972404296875	0.235943359375	0		6.0441533203125	0.5117196350097656	0		-0.32424212646484374	5.85361572265625	0		
-0.018285547256469727	0.005197408199310302	0		0.5050762634277344	-2.34319580078125	0		-1.111224609375	0.21522161865234374	0		-0.5620943603515625	-2.65245751953125	0		2.323152099609375	-0.062400691986083986	0		3.770084228515625	0.12202793884277344	0		4.966666015625	0.2729776611328125	0		6.0320498046875	0.5361973266601563	0		-0.3263366088867187	5.8565986328125	0		
-0.03445974731445312	3.173080086708069E-4	0		0.4749400024414063	-2.344933349609375	0		-1.1382779541015624	0.22244845581054687	0		-0.5682711791992188	-2.65843994140625	0		2.22184130859375	-0.08041679382324218	0		3.774888427734375	0.11494770050048828	0		4.961611328125	0.28000100708007813	0		6.03615380859375	0.5152935180664062	0		-0.3264787292480469	5.85655615234375	0		
-0.03459737777709961	2.688199877738953E-4	0		0.49875851440429686	-2.3502216796875	0		-1.132467041015625	0.217336181640625	0		-0.5344522094726563	-2.663832275390625	0		2.185615234375	-0.08909488677978515	0		3.75989208984375	0.1290620422363281	0		4.95162451171875	0.29506884765625	0		6.0289375	0.51887841796875	0		-0.3767840881347656	5.84201123046875	0		
-0.011782718658447265	-0.00401967191696167	0		0.474673583984375	-2.34503564453125	0		-1.1175821533203125	0.22012440490722657	0		-0.5725857543945313	-2.663508544921875	0		2.17634130859375	-0.10205374145507813	0		3.7728779296875	0.14188536071777344	0		4.9307724609375	0.3242374267578125	0		6.018208984375	0.5363734130859374	0		-0.3277878723144531	5.857458984375	0		
-0.034877765655517576	1.4425800740718842E-4	0		0.5025419006347657	-2.345383544921875	0		-1.11267919921875	0.2240035858154297	0		-0.57068505859375	-2.66059765625	0		2.195163818359375	-0.10630632019042968	0		3.74210498046875	0.1781382598876953	0		4.9299169921875	0.35219183349609373	0		6.0436865234375	0.5114391784667969	0		-0.3619985656738281	5.85173291015625	0		
0.04602818298339844	0.001250038981437683	0		0.47848757934570313	-2.340220458984375	0		-1.1196484375	0.23799237060546874	0		-0.5328023681640625	-2.66206005859375	0		2.200983154296875	-0.11344135284423829	0		3.73798486328125	0.1771063232421875	0		4.933017578125	0.3730904846191406	0		6.03521435546875	0.5513184204101562	0		-0.32806048583984376	5.85731103515625	0		
0.042934463500976565	-0.0018112800121307374	0		0.4914346008300781	-2.339442626953125	0		-1.112853515625	0.223830322265625	0		-0.5389346313476563	-2.66909130859375	0		2.144862060546875	-0.11896797943115234	0		3.75912109375	0.19680442810058593	0		4.91425634765625	0.4031912536621094	0		6.03153857421875	0.53568359375	0		-0.3772860107421875	5.841712890625	0		
-0.03505293273925781	-1.319199949502945E-4	0		0.47437139892578123	-2.345377197265625	0		-1.1197135009765624	0.237795654296875	0		-0.5059906616210937	-2.674528076171875	0		2.1448603515625	-0.1190755844116211	0		3.72127294921875	0.21207688903808594	0		4.909466796875	0.4241301879882812	0		6.031537109375	0.5354907836914062	0		-0.3442028503417969	5.849275390625	0		
0.0389649543762207	-0.005996685981750488	0		0.5004053955078125	-2.348760498046875	0		-1.119640869140625	0.23767852783203125	0		-0.5799021606445313	-2.671902099609375	0		2.14173095703125	-0.1391704864501953	0		3.6934375	0.22122784423828126	0		4.90768115234375	0.43801589965820314	0		6.0315888671875	0.5352538452148438	0		-0.37718356323242186	5.84248876953125	0		
0.04618822479248047	7.96949028968811E-4	0		0.4806494140625	-2.338697021484375	0		-1.0944676513671876	0.23929649353027344	0		-0.5767212524414063	-2.668065185546875	0		2.141883544921875	-0.13931573486328125	0		3.71576171875	0.23785299682617186	0		4.8832001953125	0.4741077880859375	0		6.03532861328125	0.5504530639648437	0		-0.3268649291992187	5.85585107421875	0		
0.046424636840820314	6.46314024925232E-4	0		0.5088691101074219	-2.3391328125	0		-1.101098388671875	0.25222320556640626	0		-0.5765022583007813	-2.668211669921875	0		2.13806884765625	-0.14443949890136717	0		3.69629296875	0.26687844848632813	0		4.89372119140625	0.5018233642578125	0		6.04904931640625	0.5497929077148438	0		-0.32856997680664063	5.85772265625	0		
-0.03024831771850586	0.0022575030326843263	0		0.4702247009277344	-2.332908935546875	0		-1.1058232421875	0.24811822509765624	0		-0.5483243408203125	-2.679653564453125	0		2.11437158203125	-0.14538058471679688	0		3.67448828125	0.2549044799804687	0		4.87519091796875	0.5168075561523438	0		6.04087255859375	0.5876848754882813	0		-0.3442869262695312	5.84972216796875	0		
-0.00790250301361084	-0.0011435739994049073	0		0.49452532958984374	-2.33833544921875	0		-1.1054434814453125	0.2479506072998047	0		-0.5890039672851562	-2.6824130859375	0		2.1007177734375	-0.14844107055664063	0		3.673140869140625	0.28170468139648436	0		4.8568671875	0.5457664794921875	0		6.03751171875	0.571780029296875	0		-0.3779061584472656	5.84389013671875	0		
-0.033472057342529296	-0.0010744589567184448	0		0.47584426879882813	-2.34634326171875	0		-1.099970947265625	0.2517203216552734	0		-0.5217140502929688	-2.693276123046875	0		2.052056396484375	-0.15716627502441408	0		3.6546455078125	0.2886549987792969	0		4.85151611328125	0.5665693359375	0		6.049849609375	0.5485220336914063	0		-0.34334243774414064	5.849357421875	0		
-0.03299871826171875	-0.0012821190357208251	0		0.4803322448730469	-2.341599365234375	0		-1.0785150146484375	0.24931642150878905	0		-0.5922174072265625	-2.6867578125	0		2.0264781494140625	-0.1621422576904297	0		3.658396484375	0.31535931396484373	0		4.83821142578125	0.5874277954101562	0		6.0417880859375	0.5862688598632813	0		-0.32965899658203124	5.86102197265625	0		
-0.028452028274536134	0.0014555000066757203	0		0.47290948486328127	-2.33174951171875	0		-1.073953857421875	0.2530723266601563	0		-0.5248529052734375	-2.697648681640625	0		2.078826904296875	-0.17892662048339844	0		3.6308388671875	0.3073572692871094	0		4.8380224609375	0.61512939453125	0		6.04215771484375	0.5856992797851562	0		-0.3290396728515625	5.8608056640625	0		
0.0490987548828125	-5.622829794883728E-4	0		0.4724078063964844	-2.333984619140625	0		-1.0733839111328125	0.2528577423095703	0		-0.565380126953125	-2.701457275390625	0		2.0464000244140625	-0.1778684997558594	0		3.635694091796875	0.3350072021484375	0		4.8207529296875	0.6299795532226562	0		6.0425625	0.5850816040039063	0		-0.3624176330566406	5.854921875	0		
-0.03129619979858399	-0.0019874889850616455	0		0.49692501831054686	-2.33948828125	0		-1.067716552734375	0.256581298828125	0		-0.534912109375	-2.7109990234375	0		2.025896240234375	-0.18994862365722656	0		3.61138525390625	0.34093157958984377	0		4.81253125	0.6437142333984375	0		6.04300732421875	0.5844161376953125	0		-0.3295763549804688	5.8633544921875	0		
0.04737387847900391	-0.004044795989990234	0		0.46955337524414065	-2.3394765625	0		-1.0610670166015626	0.25228468322753905	0		-0.5733025512695312	-2.711849365234375	0		2.0044443359375	-0.20303497314453126	0		3.603221435546875	0.354672119140625	0		4.79758935546875	0.67849560546875	0		6.04349755859375	0.5837036743164062	0		-0.327758056640625	5.8620908203125	0		
0.05115528106689453	-0.0013503689765930176	0		0.48320980834960936	-2.3428955078125	0		-1.0461973876953126	0.26289599609375	0		-0.5059455871582031	-2.74379150390625	0		1.9821910400390625	-0.2031270751953125	0		3.5929619140625	0.35241415405273435	0		4.79356396484375	0.6981428833007812	0		6.0504541015625	0.582786376953125	0		-0.3258694152832031	5.85981591796875	0		
-0.021974754333496094	0.004124067783355713	0		0.48799636840820315	-2.339234619140625	0		-1.041333984375	0.2666021423339844	0		-0.5161187133789062	-2.734947509765625	0		1.9769385986328125	-0.2094070281982422	0		3.579147216796875	0.38717691040039065	0		4.790625	0.7197579956054687	0		6.051037109375	0.581984375	0		-0.32685098266601564	5.8625625	0		
0.052839080810546876	-0.0019286580085754394	0		0.5017999267578125	-2.33867578125	0		-1.0504454345703125	0.26744683837890626	0		-0.5363569946289063	-2.73700634765625	0		1.937720703125	-0.2173498992919922	0		3.54189697265625	0.3741622314453125	0		4.77465234375	0.7324867553710938	0		6.0431376953125	0.5900032958984375	0		-0.36083282470703126	5.85864208984375	0		
-0.023237401962280274	-4.331899881362915E-4	0		0.47260833740234376	-2.340681396484375	0		-1.0504339599609376	0.2761951293945312	0		-0.52969873046875	-2.75234716796875	0		1.9745479736328124	-0.22508738708496093	0		3.538026123046875	0.39379095458984376	0		4.7618046875	0.7531654052734374	0		6.04672314453125	0.6080762939453125	0		-0.3407718505859375	5.85316015625	0		
